<svg width="66px" height="170px" viewBox="0 0 66 170" version="1.1" xmlns="http://www.w3.org/2000/svg" xmlns:xlink="http://www.w3.org/1999/xlink">
    <!-- Generator: Sketch 64 (93537) - https://sketch.com -->
    <title>Group 6</title>
    <desc>Created with Sketch.</desc>
    <g id="Components" stroke="none" stroke-width="1" fill="none" fill-rule="evenodd">
        <g id="Artboard" transform="translate(-512.000000, -196.000000)">
            <g id="Group-6" transform="translate(512.571528, 195.667240)">
                <path d="M44.10504,0.63627 L43.913,48.94176 L43.848,54.16674 C43.8625572,54.1485854 43.8771773,54.1303946 43.8918602,54.1121681 L43.875,58.33676 L43.7913,58.36821 C43.73838,61.8477 43.6859325,65.3257725 43.6341937,68.8026638 L43.48134,79.23003 C43.26588,90.5757 43.0542,101.9157 42.84252,113.12718 C42.69132,119.44356 42.41916,125.6352 42.12054,131.60004 L42.12054,131.60004 L42.12054,131.77392 L43.53048,131.77392 L65.30328,148.1262 L65.30328,169.87821 L10.84104,169.87821 L-3.33955086e-13,169.81584 C0.02646,169.16379 0.02646,168.53253 0.02646,167.90127 C0.04914,166.86744 0.06993,165.84684 0.09072,164.83758 C0.11718,163.63176 0.14742,163.49001 0.18144,162.89466 C0.24948,161.89863 0.33642,160.94796 0.43848,160.04076 C0.61992,158.40969 0.89019,156.79185 1.25118,155.19102 C1.89378,152.36358 2.7027,150.4887 3.7422,149.71758 C4.7817,148.94646 5.74182,152.09142 5.85522,156.64632 L5.85522,156.64632 L5.85522,157.92774 C5.7456,160.11825 5.67756,163.5297 5.62842,164.21766 L5.62842,164.21766 L5.84388,164.2479 L25.8741,164.2479 C33.55506,164.2668 41.1831,164.3991 48.67506,164.96232 C49.51611,165.03603 50.35716,165.06627 51.2001,165.05304 L51.2001,165.05304 L56.8134,164.92452 L60.33636,164.89428 L60.4233,158.2755 L60.50646,153.93606 C60.5367,152.5488 60.56694,150.7155 60.60096,150.50004 L60.60096,150.50004 L59.84496,149.88768 L58.37832,148.73478 L55.43748,146.43276 L49.52556,141.84573 L42.2982,136.22676 C41.13774,136.9941 35.95914,137.60646 29.09844,137.69718 L29.09844,137.69718 L26.65278,137.69718 L19.89414,137.6178 L12.06198,143.03076 C9.32148,144.92076 6.56586,146.64255 3.87072,148.28496 C2.15838,149.3358 1.62918,148.82172 2.73672,147.56676 C6.16329,143.77164 9.98109,140.35074 14.12586,137.36076 L14.12586,137.36076 L19.79208,133.14228 C19.82988,129.48324 19.86957,125.81475 19.90926,122.1387 C19.93005,117.93534 19.94895,113.72631 19.96974,109.50594 L19.96974,109.50594 L19.9694824,80.7744826 C19.9748136,65.009544 20.081124,49.302888 20.68794,33.91728 C20.74842,32.38071 20.80512,30.6438 20.77866,29.09778 C20.72952,23.92863 20.67849,18.77271 20.62746,13.63002 C20.64258,9.13182 20.65014,4.6374 20.65014,0.14676 L20.649,1.02276 L44.10504,0.63627 Z M39.58038,1.13334 L25.56792,1.13334 L25.5677625,108.992481 C25.56645,113.768363 25.55595,118.565025 25.4772,123.26325 L25.4772,123.26325 L25.31844,129.22998 L25.26174,130.64748 L25.2315,131.343 L25.2315,131.74368 L33.51348,131.76447 L40.74462,131.7777 C39.82041,122.36739 39.40083,112.91172 39.49344,103.45416 C39.52179,91.19373 39.55014,78.93141 39.5766,66.67476 L39.5766,66.67476 L39.5766,45.97926 C39.49344,44.22912 39.49344,42.37503 39.49344,40.44912 L39.49344,40.44912 L39.54258,30.09003 L39.58038,30.05034 L39.58038,1.13334 Z" id="Combined-Shape" fill="#000000" fill-rule="nonzero"></path>
                <path d="" id="Path-3-Copy" stroke="#979797"></path>
            </g>
        </g>
    </g>
</svg>