<svg width="173px" height="194px" viewBox="0 0 173 194" version="1.1" xmlns="http://www.w3.org/2000/svg" xmlns:xlink="http://www.w3.org/1999/xlink">
    <!-- Generator: Sketch 64 (93537) - https://sketch.com -->
    <title>Group 8</title>
    <desc>Created with Sketch.</desc>
    <g id="Components" stroke="none" stroke-width="1" fill="none" fill-rule="evenodd">
        <g id="9-Puzzle" transform="translate(-424.000000, -255.000000)" fill="#000000">
            <g id="Group-8" transform="translate(424.400000, 255.000000)">
                <g id="Group-9">
                    <path d="M94.957002,28.33866 C94.314402,29.01906 93.528162,29.72592 92.828862,30.34395 C77.172102,44.05212 62.619102,60.22296 47.223162,74.50002 C46.875402,74.8251 46.523862,75.2031 46.183662,75.55464 C45.291582,76.48641 44.505342,77.38038 43.847622,78.20064 C43.951572,70.47432 44.025282,62.73855 44.070642,54.99144 L47.124882,52.09974 C54.227502,45.33354 61.375482,38.58624 68.394942,31.68585 L75.312342,24.97824 C82.902582,24.99525 90.507942,24.99525 98.124642,24.97824 L94.957002,28.33866 Z M44.335242,24.67017 C52.458462,24.82515 60.621372,24.91398 68.829642,24.93666 L49.774662,43.98786 L44.104662,49.61628 C44.184042,41.30028 44.259642,32.98428 44.335242,24.67017 L44.335242,24.67017 Z M33.513102,155.79837 L25.231122,155.77758 L25.231122,155.72088 L25.231122,155.3769 L25.261362,154.68138 L25.318062,153.26388 L25.476822,147.29715 C25.571322,141.65928 25.567542,135.87966 25.567542,130.1643 L25.567542,25.16724 L25.658262,25.16724 L39.580002,25.16724 L39.580002,54.08424 L39.542202,54.12393 L39.493062,64.48302 C39.493062,66.40893 39.493062,68.26302 39.576222,70.01316 L39.576222,90.70866 C39.549762,102.96531 39.521412,115.22763 39.493062,127.48806 C39.400452,136.94562 39.820032,146.40129 40.744242,155.8116 L33.513102,155.79837 Z M171.316782,23.14116 C167.979042,21.15666 153.815382,19.7127 134.321922,19.44054 C127.604862,19.34604 120.713922,19.34982 113.909922,19.34982 L93.996882,19.34982 L74.442942,19.34982 L8.232462,19.34982 L8.232462,5.31468 L8.338302,5.31468 L110.436102,5.31468 L154.219842,5.39784 L163.223802,5.34492 L167.483862,5.28066 L168.523362,5.2542 C168.610302,5.2542 168.583842,5.2353 168.625422,5.22396 L168.825762,5.15592 C168.863562,5.21451 168.893802,5.27688 168.916482,5.34114 L168.939162,5.40918 C168.939162,5.38461 168.939162,5.73048 168.965622,5.87034 L169.018542,7.00434 C169.101702,8.50122 169.182972,9.96975 169.260462,11.40804 C169.438122,14.28273 169.638462,17.03268 169.887942,19.68246 C170.224362,23.41143 170.957682,23.14872 171.150462,18.57114 L171.732582,2.25666 L165.745062,2.10546 L125.389782,1.46664 C106.111782,1.2285 86.833782,0.945 67.472622,0.87318 L3.284442,0.36666 C3.284442,8.33679 3.276882,16.32204 3.261762,24.31674 L20.649762,24.18066 C20.649762,28.6713 20.642202,33.16572 20.627082,37.66392 C20.678112,42.80661 20.729142,47.96253 20.778282,53.13168 C20.804742,54.6777 20.748042,56.41461 20.687562,57.95118 C20.037402,74.43576 19.961802,91.28889 19.969362,108.18738 L19.969362,133.53984 C19.948572,137.76021 19.929672,141.96924 19.908882,146.1726 C19.869192,149.84865 19.829502,153.51714 19.791702,157.17618 L14.125482,161.39466 C9.980712,164.38464 6.162912,167.80554 2.736342,171.60066 C1.628802,172.85562 2.158002,173.3697 3.870342,172.31886 C6.565482,170.67645 9.321102,168.95466 12.061602,167.06466 L19.893762,161.6517 L26.652402,161.73108 L29.098062,161.73108 C35.958762,161.64036 41.137362,161.028 42.297822,160.26066 L49.525182,165.87963 L55.437102,170.46666 L58.377942,172.76868 L59.844582,173.92158 L60.600582,174.53394 C60.566562,174.7494 60.536322,176.5827 60.506082,177.96996 L60.422922,182.3094 L60.335982,188.92818 L56.813022,188.95842 L51.199722,189.08694 C50.356782,189.10017 49.515732,189.06993 48.674682,188.99622 C41.182722,188.433 33.554682,188.3007 25.873722,188.2818 L14.352282,188.2818 L8.580222,188.2818 L5.843502,188.2818 L5.628042,188.25156 C5.677182,187.5636 5.745222,184.15215 5.854842,181.96164 L5.854842,180.68022 C5.741442,176.12532 4.781322,172.98036 3.741822,173.75148 C2.702322,174.5226 1.893402,176.39748 1.250802,179.22492 C0.889812,180.82575 0.619542,182.44359 0.438102,184.07466 C0.336042,184.98186 0.249102,185.93253 0.181062,186.92856 C0.147042,187.52391 0.116802,187.66566 0.090342,188.87148 C0.069552,189.88074 0.048762,190.90134 0.026082,191.93517 C0.026082,192.56643 0.026082,193.19769 -0.000378,193.84974 L10.840662,193.91211 L65.302902,193.91211 L65.302902,184.7286 L65.302902,172.1601 L43.530102,155.80782 L42.120162,155.80782 L42.120162,155.63394 C42.418782,149.6691 42.690942,143.47746 42.842142,137.16108 C43.053822,125.9496 43.265502,114.6096 43.480962,103.26393 C43.581132,96.3144 43.685082,89.36109 43.790922,82.40211 C46.905642,81.3267 52.061562,77.59017 57.947022,72.01656 C60.430482,69.6654 62.906382,67.18572 65.355822,64.73628 L105.144102,24.95934 C118.353312,24.95934 131.524722,24.98769 144.590292,25.16724 L158.646222,25.16724 C167.291082,24.94233 172.887372,24.07293 171.316782,23.14116 L171.316782,23.14116 Z" id="Fill-7"></path>
                </g>
                <path d="M139.199445,23.879583 C138.942405,44.686593 139.155975,65.501163 139.834485,86.298723 C139.953555,89.938863 145.625445,89.955873 145.504485,86.298723 C144.825975,65.501163 144.612405,44.686593 144.869445,23.879583 C144.914805,20.228103 139.244805,20.226213 139.199445,23.879583" id="Fill-10"></path>
                <path d="M150.394482,77.95494 C156.183552,74.47923 160.872642,80.60661 161.023842,85.9761 C160.625052,91.84644 148.895712,96.57333 145.992672,90.38358 C144.091332,86.32197 146.722212,80.15868 150.394482,77.95494 M166.591782,86.81148 C166.657932,86.55444 166.701402,86.28228 166.693842,85.9761 C166.714632,85.68315 166.684392,85.42233 166.633362,85.17663 C166.015332,77.28021 159.617682,69.42159 150.946362,71.62911 C143.342892,73.56636 138.612222,82.60434 140.039172,90.06984 C140.114772,90.46107 140.211162,90.82962 140.313222,91.1925 C140.073192,91.41741 139.855842,91.70091 139.685742,92.07513 C135.618462,101.04129 133.633962,110.73888 131.229882,120.24369 C130.335912,123.78366 135.803682,125.29377 136.697652,121.75191 C138.149172,116.01387 139.400352,110.12274 141.114582,104.4036 C141.413202,110.89764 141.509592,117.5202 140.150682,123.11271 C138.973212,127.95678 135.667602,132.23196 133.656642,136.86624 C131.042772,142.88967 129.094182,149.15502 127.160712,155.41848 C126.081522,158.91498 131.553072,160.40997 132.628482,156.9267 C134.801982,149.87889 136.935792,142.72524 140.211162,136.08945 C140.267862,135.97227 140.330232,135.86265 140.388822,135.74736 C141.314922,143.92917 143.170902,152.19036 144.380502,160.11513 C144.928602,163.70991 150.394482,162.1809 149.846382,158.60691 C148.219092,147.93219 145.344402,136.62432 145.497492,125.80785 C145.786662,124.95924 146.034252,124.08795 146.183562,123.16374 C146.947122,118.43685 146.998152,113.32251 146.850732,108.17793 C149.651712,113.71374 151.925382,119.31003 152.995122,125.45631 C153.620712,129.04353 159.086592,127.52397 158.462892,123.94809 C157.636962,119.19852 156.141972,114.74946 154.178262,110.35332 C152.564202,106.74342 149.479722,102.53628 147.824082,98.4123 C155.291472,100.16244 165.404862,95.05566 166.591782,86.81148" id="Fill-12"></path>
            </g>
        </g>
    </g>
</svg>