<svg width="172px" height="194px" viewBox="0 0 172 194" version="1.1" xmlns="http://www.w3.org/2000/svg" xmlns:xlink="http://www.w3.org/1999/xlink">
    <!-- Generator: Sketch 64 (93537) - https://sketch.com -->
    <title>Fill-7-Copy</title>
    <desc>Created with Sketch.</desc>
    <g id="Components" stroke="none" stroke-width="1" fill="none" fill-rule="evenodd">
        <g id="Artboard" transform="translate(-941.000000, -171.000000)" fill="#000000" fill-rule="nonzero">
            <path d="M1035.95738,199.33866 C1035.31478,200.01906 1034.52854,200.72592 1033.82924,201.34395 C1018.17248,215.05212 1003.61948,231.22296 988.22354,245.50002 C987.87578,245.8251 987.52424,246.2031 987.18404,246.55464 C986.29196,247.48641 985.50572,248.38038 984.848,249.20064 C984.95195,241.47432 985.02566,233.73855 985.07102,225.99144 L988.12526,223.09974 C995.22788,216.33354 1002.37586,209.58624 1009.39532,202.68585 L1016.31272,195.97824 C1023.90296,195.99525 1031.50832,195.99525 1039.12502,195.97824 L1035.95738,199.33866 Z M985.33562,195.67017 C993.45884,195.82515 1001.62175,195.91398 1009.83002,195.93666 L990.77504,214.98786 L985.10504,220.61628 C985.18442,212.30028 985.26002,203.98428 985.33562,195.67017 L985.33562,195.67017 Z M974.51348,326.79837 L966.2315,326.77758 L966.2315,326.72088 L966.2315,326.3769 L966.26174,325.68138 L966.31844,324.26388 L966.4772,318.29715 C966.5717,312.65928 966.56792,306.87966 966.56792,301.1643 L966.56792,196.16724 L966.65864,196.16724 L980.58038,196.16724 L980.58038,225.08424 L980.54258,225.12393 L980.49344,235.48302 C980.49344,237.40893 980.49344,239.26302 980.5766,241.01316 L980.5766,261.70866 C980.55014,273.96531 980.52179,286.22763 980.49344,298.48806 C980.40083,307.94562 980.82041,317.40129 981.74462,326.8116 L974.51348,326.79837 Z M1112.31716,194.14116 C1108.97942,192.15666 1094.81576,190.7127 1075.3223,190.44054 C1068.60524,190.34604 1061.7143,190.34982 1054.9103,190.34982 L1034.99726,190.34982 L1015.44332,190.34982 L949.23284,190.34982 L949.23284,176.31468 L949.33868,176.31468 L1051.43648,176.31468 L1095.22022,176.39784 L1104.22418,176.34492 L1108.48424,176.28066 L1109.52374,176.2542 C1109.61068,176.2542 1109.58422,176.2353 1109.6258,176.22396 L1109.82614,176.15592 C1109.86394,176.21451 1109.89418,176.27688 1109.91686,176.34114 L1109.93954,176.40918 C1109.93954,176.38461 1109.93954,176.73048 1109.966,176.87034 L1110.01892,178.00434 C1110.10208,179.50122 1110.18335,180.96975 1110.26084,182.40804 C1110.4385,185.28273 1110.63884,188.03268 1110.88832,190.68246 C1111.22474,194.41143 1111.95806,194.14872 1112.15084,189.57114 L1112.73296,173.25666 L1106.74544,173.10546 L1066.39016,172.46664 C1047.11216,172.2285 1027.83416,171.945 1008.473,171.87318 L944.28482,171.36666 C944.28482,179.33679 944.27726,187.32204 944.26214,195.31674 L961.65014,195.18066 C961.65014,199.6713 961.64258,204.16572 961.62746,208.66392 C961.67849,213.80661 961.72952,218.96253 961.77866,224.13168 C961.80512,225.6777 961.74842,227.41461 961.68794,228.95118 C961.03778,245.43576 960.96218,262.28889 960.96974,279.18738 L960.96974,304.53984 C960.94895,308.76021 960.93005,312.96924 960.90926,317.1726 C960.86957,320.84865 960.82988,324.51714 960.79208,328.17618 L955.12586,332.39466 C950.98109,335.38464 947.16329,338.80554 943.73672,342.60066 C942.62918,343.85562 943.15838,344.3697 944.87072,343.31886 C947.56586,341.67645 950.32148,339.95466 953.06198,338.06466 L960.89414,332.6517 L967.65278,332.73108 L970.09844,332.73108 C976.95914,332.64036 982.13774,332.028 983.2982,331.26066 L990.52556,336.87963 L996.43748,341.46666 L999.37832,343.76868 L1000.84496,344.92158 L1001.60096,345.53394 C1001.56694,345.7494 1001.5367,347.5827 1001.50646,348.96996 L1001.4233,353.3094 L1001.33636,359.92818 L997.8134,359.95842 L992.2001,360.08694 C991.35716,360.10017 990.51611,360.06993 989.67506,359.99622 C982.1831,359.433 974.55506,359.3007 966.8741,359.2818 L955.35266,359.2818 L949.5806,359.2818 L946.84388,359.2818 L946.62842,359.25156 C946.67756,358.5636 946.7456,355.15215 946.85522,352.96164 L946.85522,351.68022 C946.74182,347.12532 945.7817,343.98036 944.7422,344.75148 C943.7027,345.5226 942.89378,347.39748 942.25118,350.22492 C941.89019,351.82575 941.61992,353.44359 941.43848,355.07466 C941.33642,355.98186 941.24948,356.93253 941.18144,357.92856 C941.14742,358.52391 941.11718,358.66566 941.09072,359.87148 C941.06993,360.88074 941.04914,361.90134 941.02646,362.93517 C941.02646,363.56643 941.02646,364.19769 941,364.84974 L951.84104,364.91211 L1006.30328,364.91211 L1006.30328,355.7286 L1006.30328,343.1601 L984.53048,326.80782 L983.12054,326.80782 L983.12054,326.63394 C983.41916,320.6691 983.69132,314.47746 983.84252,308.16108 C984.0542,296.9496 984.26588,285.6096 984.48134,274.26393 C984.58151,267.3144 984.68546,260.36109 984.7913,253.40211 C987.90602,252.3267 993.06194,248.59017 998.9474,243.01656 C1001.43086,240.6654 1003.90676,238.18572 1006.3562,235.73628 L1046.14448,195.95934 C1059.35369,195.95934 1072.5251,195.98769 1085.59067,196.16724 L1099.6466,196.16724 C1108.29146,195.94233 1113.88775,195.07293 1112.31716,194.14116 L1112.31716,194.14116 Z" id="Fill-7-Copy"></path>
        </g>
    </g>
</svg>