<svg width="66px" height="39px" viewBox="0 0 66 39" version="1.1" xmlns="http://www.w3.org/2000/svg" xmlns:xlink="http://www.w3.org/1999/xlink">
    <!-- Generator: Sketch 64 (93537) - https://sketch.com -->
    <title>Combined Shape</title>
    <desc>Created with Sketch.</desc>
    <g id="Components" stroke="none" stroke-width="1" fill="none" fill-rule="evenodd">
        <g id="Artboard" transform="translate(-282.000000, -327.000000)" fill="#000000" fill-rule="nonzero">
            <path d="M326.480528,327.726653 L347.874808,343.79344 L347.874808,365.54545 L293.412568,365.54545 L282.571528,365.48308 C282.597988,364.83103 282.597988,364.19977 282.597988,363.56851 C282.620668,362.53468 282.641458,361.51408 282.662248,360.50482 C282.688708,359.299 282.718948,359.15725 282.752968,358.5619 C282.821008,357.56587 282.907948,356.6152 283.010008,355.708 C283.191448,354.07693 283.461718,352.45909 283.822708,350.85826 C284.465308,348.03082 285.274228,346.15594 286.313728,345.38482 C287.353228,344.6137 288.313348,347.75866 288.426748,352.31356 L288.426748,352.31356 L288.426748,353.59498 C288.317128,355.78549 288.249088,359.19694 288.199948,359.8849 L288.199948,359.8849 L288.415408,359.91514 L308.445628,359.91514 C316.126588,359.93404 323.754628,360.06634 331.246588,360.62956 C332.087638,360.70327 332.928688,360.73351 333.771628,360.72028 L333.771628,360.72028 L339.384928,360.59176 L342.907888,360.56152 L342.994828,353.94274 L343.077988,349.6033 C343.108228,348.21604 343.138468,346.38274 343.172488,346.16728 L343.172488,346.16728 L342.416488,345.55492 L340.949848,344.40202 L338.009008,342.1 L332.097088,337.51297 L324.869728,331.894 C323.709268,332.66134 318.530668,333.2737 311.669968,333.36442 L311.669968,333.36442 L309.224308,333.36442 L302.465668,333.28504 L294.633508,338.698 C291.893008,340.588 289.137388,342.30979 286.442248,343.9522 C284.729908,345.00304 284.200708,344.48896 285.308248,343.234 C288.734818,339.43888 292.552618,336.01798 296.697388,333.028 L296.697388,333.028 L302.363608,328.80952 C302.364021,328.76956 302.364434,328.729598 302.364848,328.689635 L326.480528,327.726653 Z" id="Combined-Shape"></path>
        </g>
    </g>
</svg>