<svg width="172px" height="194px" viewBox="0 0 172 194" version="1.1" xmlns="http://www.w3.org/2000/svg" xmlns:xlink="http://www.w3.org/1999/xlink">
    <!-- Generator: Sketch 64 (93537) - https://sketch.com -->
    <title>Group</title>
    <desc>Created with Sketch.</desc>
    <g id="Components" stroke="none" stroke-width="1" fill="none" fill-rule="evenodd">
        <g id="Artboard" transform="translate(-571.000000, -171.000000)" fill="#000000">
            <g id="Group" transform="translate(571.000000, 171.366660)">
                <path d="M94.95738,27.972 C94.31478,28.6524 93.52854,29.35926 92.82924,29.97729 C77.17248,43.68546 62.61948,59.8563 47.22354,74.13336 C46.87578,74.45844 46.52424,74.83644 46.18404,75.18798 C45.29196,76.11975 44.50572,77.01372 43.848,77.83398 C43.95195,70.10766 44.02566,62.37189 44.07102,54.62478 L47.12526,51.73308 C54.22788,44.96688 61.37586,38.21958 68.39532,31.31919 L75.31272,24.61158 C82.90296,24.62859 90.50832,24.62859 98.12502,24.61158 L94.95738,27.972 Z M44.33562,24.30351 C52.45884,24.45849 60.62175,24.54732 68.83002,24.57 L49.77504,43.6212 L44.10504,49.24962 C44.18442,40.93362 44.26002,32.61762 44.33562,24.30351 L44.33562,24.30351 Z M33.51348,155.43171 L25.2315,155.41092 L25.2315,155.35422 L25.2315,155.01024 L25.26174,154.31472 L25.31844,152.89722 L25.4772,146.93049 C25.5717,141.29262 25.56792,135.513 25.56792,129.79764 L25.56792,24.80058 L25.65864,24.80058 L39.58038,24.80058 L39.58038,53.71758 L39.54258,53.75727 L39.49344,64.11636 C39.49344,66.04227 39.49344,67.89636 39.5766,69.6465 L39.5766,90.342 C39.55014,102.59865 39.52179,114.86097 39.49344,127.1214 C39.40083,136.57896 39.82041,146.03463 40.74462,155.44494 L33.51348,155.43171 Z M171.31716,22.7745 C167.97942,20.79 153.81576,19.34604 134.3223,19.07388 C127.60524,18.97938 120.7143,18.98316 113.9103,18.98316 L93.99726,18.98316 L74.44332,18.98316 L8.23284,18.98316 L8.23284,4.94802 L8.33868,4.94802 L110.43648,4.94802 L154.22022,5.03118 L163.22418,4.97826 L167.48424,4.914 L168.52374,4.88754 C168.61068,4.88754 168.58422,4.86864 168.6258,4.8573 L168.82614,4.78926 C168.86394,4.84785 168.89418,4.91022 168.91686,4.97448 L168.93954,5.04252 C168.93954,5.01795 168.93954,5.36382 168.966,5.50368 L169.01892,6.63768 C169.10208,8.13456 169.18335,9.60309 169.26084,11.04138 C169.4385,13.91607 169.63884,16.66602 169.88832,19.3158 C170.22474,23.04477 170.95806,22.78206 171.15084,18.20448 L171.73296,1.89 L165.74544,1.7388 L125.39016,1.09998 C106.11216,0.86184 86.83416,0.57834 67.473,0.50652 L3.28482,-1.84741111e-13 C3.28482,7.97013 3.27726,15.95538 3.26214,23.95008 L20.65014,23.814 C20.65014,28.30464 20.64258,32.79906 20.62746,37.29726 C20.67849,42.43995 20.72952,47.59587 20.77866,52.76502 C20.80512,54.31104 20.74842,56.04795 20.68794,57.58452 C20.03778,74.0691 19.96218,90.92223 19.96974,107.82072 L19.96974,133.17318 C19.94895,137.39355 19.93005,141.60258 19.90926,145.80594 C19.86957,149.48199 19.82988,153.15048 19.79208,156.80952 L14.12586,161.028 C9.98109,164.01798 6.16329,167.43888 2.73672,171.234 C1.62918,172.48896 2.15838,173.00304 3.87072,171.9522 C6.56586,170.30979 9.32148,168.588 12.06198,166.698 L19.89414,161.28504 L26.65278,161.36442 L29.09844,161.36442 C35.95914,161.2737 41.13774,160.66134 42.2982,159.894 L49.52556,165.51297 L55.43748,170.1 L58.37832,172.40202 L59.84496,173.55492 L60.60096,174.16728 C60.56694,174.38274 60.5367,176.21604 60.50646,177.6033 L60.4233,181.94274 L60.33636,188.56152 L56.8134,188.59176 L51.2001,188.72028 C50.35716,188.73351 49.51611,188.70327 48.67506,188.62956 C41.1831,188.06634 33.55506,187.93404 25.8741,187.91514 L14.35266,187.91514 L8.5806,187.91514 L5.84388,187.91514 L5.62842,187.8849 C5.67756,187.19694 5.7456,183.78549 5.85522,181.59498 L5.85522,180.31356 C5.74182,175.75866 4.7817,172.6137 3.7422,173.38482 C2.7027,174.15594 1.89378,176.03082 1.25118,178.85826 C0.89019,180.45909 0.61992,182.07693 0.43848,183.708 C0.33642,184.6152 0.24948,185.56587 0.18144,186.5619 C0.14742,187.15725 0.11718,187.299 0.09072,188.50482 C0.06993,189.51408 0.04914,190.53468 0.02646,191.56851 C0.02646,192.19977 0.02646,192.83103 1.42108547e-13,193.48308 L10.84104,193.54545 L65.30328,193.54545 L65.30328,184.36194 L65.30328,171.79344 L43.53048,155.44116 L42.12054,155.44116 L42.12054,155.26728 C42.41916,149.30244 42.69132,143.1108 42.84252,136.79442 C43.0542,125.58294 43.26588,114.24294 43.48134,102.89727 C43.58151,95.94774 43.68546,88.99443 43.7913,82.03545 C46.90602,80.96004 52.06194,77.22351 57.9474,71.6499 C60.43086,69.29874 62.90676,66.81906 65.3562,64.36962 L105.14448,24.59268 C118.35369,24.59268 131.5251,24.62103 144.59067,24.80058 L158.6466,24.80058 C167.29146,24.57567 172.88775,23.70627 171.31716,22.7745 L171.31716,22.7745 Z" id="Fill-7-Copy"></path>
                <path d="M139.199823,23.512923 C138.942783,44.319933 139.156353,65.134503 139.834863,85.932063 C139.953933,89.572203 145.625823,89.589213 145.504863,85.932063 C144.826353,65.134503 144.612783,44.319933 144.869823,23.512923 C144.915183,19.861443 139.245183,19.859553 139.199823,23.512923" id="Fill-10-Copy"></path>
                <path d="M150.94674,71.26245 C159.61806,69.05493 166.01571,76.91355 166.63374,84.80997 C166.68477,85.05567 166.71501,85.31649 166.69422,85.60944 C166.70178,85.91562 166.65831,86.18778 166.59216,86.44482 C165.40524,94.689 155.29185,99.79578 147.82446,98.04564 C147.828203,98.0549642 147.831954,98.0642889 147.835712,98.073614 C143.274713,96.4076363 140.829405,93.9273924 140.5,90.63334 L140.5,90.63334 L140.214519,90.4624593 C140.149917,90.2161138 140.090088,89.9647146 140.03955,89.70318 C138.6126,82.23768 143.34327,73.1997 150.94674,71.26245 Z M161.02422,85.60944 C160.87302,80.23995 156.18393,74.11257 150.39486,77.58828 C146.72259,79.79202 144.09171,85.95531 145.99305,90.01692 C148.89609,96.20667 160.62543,91.47978 161.02422,85.60944 Z" id="Combined-Shape"></path>
            </g>
        </g>
    </g>
</svg>